# xmcd
#
# Track frame offsets:
#	150
#	17331
#	31619
#	50646
#	69088
#	85483
#	103849
#	119990
#	135640
#	154014
#	170449
#	185644
#	203372
#	218159
#	236816
#	254839
#	269201
#	288828
#	303346
#	317475
#	332673
#
# Disc length: 4619 seconds
#
# Revision: 0
# Processed by: cddbd v1.5.2PL0 Copyright (c) Steve Scherf et al.
# Submitted via: EasyCDDAExtractor 8.2.1.1
#
DISCID=34120915
DTITLE=Various Artist - Лучшие из Лучших - 9
DYEAR=2008
DGENRE=
TTITLE0=Хема - Веза бохуш
TTITLE1=Раиса Турпалханова - Бехк ма билла
TTITLE2=Тамара Адамова - Жималла
TTITLE3=Фатима Турпалханова - Безам
TTITLE4=Хема - Хазачу дашо
TTITLE5=Раиса Турпалханова - Доьху remixe
TTITLE6=Рита - Сан кхоллам
TTITLE7=Хема - Безаман ц1е
TTITLE8=Раиса Турпалханова - Баркалла
TTITLE9=Хема - Сурт дуьллу
TTITLE10=Фатима Турпалханова - Везачуьнга
TTITLE11=Раиса Турпалханова - Доьху
TTITLE12=Хеда Хамзатова - Наб йайна
TTITLE13=Азиза Этиева - Лайн ч
TTITLE14=Раиса Турпалханова - Ериг ойла
TTITLE15=Хема - Дашо ч1уг
TTITLE16=Фатима и Раиса - Луна
TTITLE17=Раиса Турпалханова - Еза ала
TTITLE18=Марха Колбазова - Мерза безам
TTITLE19=Милана Балаева - Была мечта
TTITLE20=Лариса Иризиева - .
EXTD=
EXTT0=
EXTT1=
EXTT2=
EXTT3=
EXTT4=
EXTT5=
EXTT6=
EXTT7=
EXTT8=
EXTT9=
EXTT10=
EXTT11=
EXTT12=
EXTT13=
EXTT14=
EXTT15=
EXTT16=
EXTT17=
EXTT18=
EXTT19=
EXTT20=
PLAYORDER=
